# xmcd CD database file
# Copyright (C) 1996 Ti Kan
#
# Track frame offsets:
# 	182
# 	16460
# 	30910
# 	48390
# 	64457
# 	81035
# 	100787
# 	113667
# 	127922
# 	140950
# 	157877
# 	176940
# 	196595
# 	213112
# 	227570
# 	242327
# 	259635
# 	272667
# 	289570
# 	305967
#
# Disc length: 4259 seconds
#
# Revision: 1
# Processed by: cddbd v1.4b41PL1 Copyright (c) Steve Scherf et al.
# Submitted via: DiscPlay 3.4.1
#
DISCID=0d10a114
DTITLE=Kenny Rogers - Kenny Rogers All-Time Favorite Hits
DYEAR=1900
DGENRE=
TTITLE0=Lucille
TTITLE1=Love The World Away
TTITLE2=Lady
TTITLE3=The Gambler
TTITLE4=Don't Fall In Love With A Dreamer - with Kim Carnes
TTITLE5=Through The Years
TTITLE6=Ruby, Don't Take Your Love To Town
TTITLE7=(Hey Won't You Play) Another Somebody Done Somebody Wrong Song -
TTITLE7=with D
TTITLE7=ottie West
TTITLE8=You Are So Beautiful
TTITLE9=Without You In My Life
TTITLE10=She Believes In Me
TTITLE11=Coward Of The County
TTITLE12=You Decorated My Life
TTITLE13=Daytime Friends
TTITLE14=A Love Song
TTITLE15=We've Got Tonight - with Sheena Easton
TTITLE16=Love Or Something Like It
TTITLE17=Desperado
TTITLE18=Love Will Turn You around
TTITLE19=Every Time Two Fools Collide - with Dottie West
EXTD=
EXTT0=
EXTT1=
EXTT2=
EXTT3=
EXTT4=
EXTT5=
EXTT6=
EXTT7=
EXTT8=
EXTT9=
EXTT10=
EXTT11=
EXTT12=
EXTT13=
EXTT14=
EXTT15=
EXTT16=
EXTT17=
EXTT18=
EXTT19=
PLAYORDER=
